<svg width="40" height="32" viewBox="0 0 40 32" fill="none" xmlns="http://www.w3.org/2000/svg">
<path d="M20.5 26C20.5 27.1046 21.3954 28 22.5 28H38C39.1046 28 40 27.1046 40 26C40 24.8954 39.1046 24 38 24H22.5C21.3954 24 20.5 24.8954 20.5 26ZM9.5 16C9.5 17.1046 10.3954 18 11.5 18H38C39.1046 18 40 17.1046 40 16C40 14.8954 39.1046 14 38 14H11.5C10.3954 14 9.5 14.8954 9.5 16ZM6 4C4.89543 4 4 4.89543 4 6C4 7.10457 4.89543 8 6 8H38C39.1046 8 40 7.10457 40 6C40 4.89543 39.1046 4 38 4H6Z" fill="#00278A"/>
</svg>
