<svg width="32" height="32" viewBox="0 0 32 32" fill="none" xmlns="http://www.w3.org/2000/svg">
<path d="M23.1667 14.3933C21.2467 18.1667 18.16 21.2533 14.38 23.1733L11.4467 20.2333C11.08 19.8667 10.5533 19.76 10.0933 19.9067C8.6 20.4 6.99333 20.6667 5.33333 20.6667C4.59333 20.6667 4 21.26 4 22V26.6667C4 27.4067 4.59333 28 5.33333 28C17.8533 28 28 17.8533 28 5.33333C28 4.59333 27.4 4 26.6667 4H22C21.26 4 20.6667 4.59333 20.6667 5.33333C20.6667 6.99333 20.4 8.6 19.9067 10.0933C19.76 10.5533 19.8667 11.08 20.2333 11.4467L23.1667 14.3933Z" fill="#00278A"/>
</svg>
