<svg width="39" height="34" viewBox="0 0 39 34" fill="none" xmlns="http://www.w3.org/2000/svg">
<path d="M11.1582 11.0377L11.1575 6.40785C11.1575 5.69268 11.1175 5.08372 12.0446 5.00324L25.3014 5.00283C25.8826 5.0024 26.4707 4.98769 27.0497 5.02983C28.1074 5.10678 27.844 6.80751 27.8436 7.53719L27.8443 11.0377L29.8873 11.0373C31.7576 11.036 32.9935 11.1961 32.9999 13.3563L33 22.1758C33.0001 24.4936 32.3377 24.8605 30.1316 24.8611L27.8443 24.8606L27.8452 29.5012C27.8452 30.2366 27.8738 30.9023 26.9249 30.9888C26.656 31.0132 26.2692 30.9903 25.9888 30.9899L12.6478 30.9903C11.421 30.9971 11.1566 31.0228 11.1575 29.5914L11.1582 24.8606L9.02107 24.8614C7.56809 24.8616 6.01705 24.7643 6 22.7668L6.00054 13.9498C5.99774 11.3512 6.65488 11.0377 9.14376 11.0369L11.1582 11.0377ZM13.5538 7.2853C13.4894 7.28858 13.4334 7.2826 13.3825 7.31794C13.4354 8.231 13.3921 9.16418 13.4062 10.0788C13.4081 10.202 13.395 10.9749 13.4065 11.0377H25.4357C25.6952 11.0315 25.5726 9.94732 25.5726 9.67007L25.572 7.2853H13.5538ZM27.9739 13.8554C27.4387 13.9729 27.1 14.5037 27.2178 15.0405C27.3357 15.5772 27.8653 15.9162 28.4003 15.7973C28.9342 15.6786 29.2714 15.1486 29.1538 14.6128C29.0362 14.077 28.5082 13.7382 27.9739 13.8554ZM13.4065 21.106C13.3908 21.3619 13.4043 21.7378 13.4054 22.0003L13.4065 28.6972H25.572C25.5872 28.6623 25.574 21.7993 25.572 21.106H13.4065Z" fill="#B9B9B9"/>
<path d="M17.3225 23.9967L16.2024 23.9984C14.4105 23.9998 15.0157 23.0721 15.5209 23.0288C15.807 23.0043 16.0685 23.0059 16.3575 23.0058L21.6972 23.006L22.8057 23.0037C23.0534 23.0035 23.6258 22.9693 23.8139 23.1128C24.1739 23.3875 23.9802 23.9377 23.5019 23.9829C23.2553 24.0062 23.0253 23.9993 22.7749 23.9983L17.3225 23.9967Z" fill="#B9B9B9"/>
<path d="M16.27 25.9877C15.9509 25.9852 15.4036 26.0602 15.1527 25.844C14.8341 25.5695 15.0504 25.071 15.4666 25.0356C15.7578 25.0109 16.0371 25.0167 16.3316 25.0167L22.7018 25.0169C23.0664 25.0214 23.8385 24.8869 23.9632 25.3095C24.2096 26.1447 23.1542 25.9884 22.6825 25.9884L16.27 25.9877Z" fill="#B9B9B9"/>
</svg>
