<svg width="40" height="40" viewBox="0 0 40 40" fill="none" xmlns="http://www.w3.org/2000/svg">
<path d="M20.0183 37.0032C29.0357 37.0032 36.3458 29.5479 36.3458 20.3514C36.3458 11.1549 29.0357 3.69958 20.0183 3.69958C11.0008 3.69958 3.69067 11.1549 3.69067 20.3514C3.69067 29.5479 11.0008 37.0032 20.0183 37.0032Z" stroke="#00278A" stroke-width="3"/>
<path d="M28.1829 15.6757C28.1829 20.3035 28.1829 24.9029 28.1829 29.5022C28.155 29.5243 28.1271 29.5463 28.0992 29.5683C28.0739 29.5107 28.058 29.4449 28.0215 29.3968C27.0152 28.065 26.0019 26.7392 25.0056 25.3991C24.8951 25.2508 24.8291 25.0233 24.8282 24.8319C24.8123 21.6013 24.81 18.3706 24.8047 15.1398C24.8044 14.9793 24.8047 14.8188 24.8047 14.6061C24.6198 14.6061 24.453 14.6058 24.2861 14.6061C23.7638 14.6072 23.2414 14.6098 22.7191 14.6091C22.4113 14.6087 22.3539 14.5513 22.3531 14.2259C22.3508 13.2633 22.3513 12.3008 22.3532 11.3383C22.354 10.9353 22.4489 10.8369 22.8385 10.8365C24.0634 10.8352 25.2882 10.8363 26.513 10.8365C26.9093 10.8366 27.3057 10.8319 27.7018 10.8384C28.0772 10.8444 28.1789 10.9563 28.1796 11.3584C28.1822 12.788 28.1819 14.2176 28.1829 15.6757Z" fill="#00278A"/>
<path d="M12.148 16.375C12.148 14.6359 12.148 12.9254 12.148 11.2148C12.1759 11.1875 12.2036 11.1601 12.2314 11.1328C12.2584 11.1993 12.273 11.2761 12.3141 11.3309C13.325 12.6762 14.3428 14.0159 15.3456 15.3677C15.4464 15.5037 15.5065 15.7106 15.507 15.8849C15.5168 19.1289 15.5146 22.3729 15.5149 25.6169C15.515 25.7397 15.515 25.8626 15.515 26.0111C15.6045 26.0176 15.6821 26.0284 15.7598 26.0285C16.3778 26.0296 16.9958 26.033 17.6138 26.0265C17.8671 26.0238 17.9776 26.1407 17.9769 26.4036C17.9742 27.4216 17.9792 28.4395 17.9759 29.4574C17.9748 29.7636 17.8767 29.8655 17.5783 29.8657C15.9333 29.8669 14.2882 29.8651 12.6433 29.8597C12.2836 29.8586 12.1491 29.7061 12.1475 29.3036C12.1438 28.3331 12.1471 27.3628 12.1472 26.3925C12.1475 23.0628 12.1478 19.7331 12.148 16.375Z" fill="#00278A"/>
<path d="M25.5089 18.566H15.3528V21.837H26.4322L25.5089 18.566Z" fill="#00278A"/>
</svg>
